<?xml version="1.0" standalone="no"?>
<!DOCTYPE svg PUBLIC "-//W3C//DTD SVG 20010904//EN"
 "http://www.w3.org/TR/2001/REC-SVG-20010904/DTD/svg10.dtd">
<svg version="1.0" xmlns="http://www.w3.org/2000/svg"
 width="250.000000pt" height="150.000000pt" viewBox="0 0 250.000000 150.000000"
 preserveAspectRatio="xMidYMid meet">

<g transform="translate(0.000000,150.000000) scale(0.100000,-0.100000)"
fill="#ffffff" stroke="none">
<path d="M117 941 c-9 -16 -17 -32 -17 -35 0 -3 25 -20 55 -37 30 -17 55 -36
55 -42 0 -7 10 -99 22 -206 19 -171 19 -195 6 -205 -44 -32 -50 -100 -13 -144
45 -54 114 -50 165 7 l25 28 990 102 c545 56 993 102 998 101 4 0 7 18 7 40 0
35 -3 40 -22 40 -13 0 -464 -45 -1004 -102 l-981 -102 -35 28 -35 29 -22 211
c-13 116 -25 218 -27 226 -3 13 -129 90 -146 90 -2 0 -11 -13 -21 -29z m208
-606 c0 -23 -34 -33 -45 -14 -13 20 1 40 24 37 13 -2 21 -10 21 -23z"/>
<path d="M290 335 c0 -9 5 -15 11 -13 6 2 11 8 11 13 0 5 -5 11 -11 13 -6 2
-11 -4 -11 -13z"/>
</g>
</svg>
